<svg xmlns="http://www.w3.org/2000/svg" viewBox="0 0 800 800" preserveAspectRatio="xMidYMid slice">
  <defs>
    <radialGradient id="bg" cx="50%" cy="40%" r="65%">
      <stop offset="0%" stop-color="#FFF7FA"/>
      <stop offset="100%" stop-color="#FFE4ED"/>
    </radialGradient>
  </defs>
  <rect width="800" height="800" fill="url(#bg)"/>
  <g transform="translate(400 400) scale(7) translate(-32 -32)">
    <path d="M10 38 C10 20 22 10 32 10 C42 10 54 20 54 38 L54 58 L10 58 Z" fill="#6B3D2A"/>
    <ellipse cx="32" cy="34" rx="15" ry="17" fill="#F5D2B8"/>
    <path d="M17 26 C20 19 26 15 32 15 C38 15 44 18 47 26 C43 22 37 21 32 21 C27 21 22 23 17 26 Z" fill="#6B3D2A"/>
    <ellipse cx="26" cy="31" rx="1.4" ry="2" fill="#1A1A1A"/>
    <ellipse cx="38" cy="31" rx="1.4" ry="2" fill="#1A1A1A"/>
    <path d="M28 42 C30 43 33 43 36 41" stroke="#C45575" stroke-width="1.6" fill="none" stroke-linecap="round"/>
    <circle cx="23" cy="38" r="2.3" fill="#FF9BB3" opacity="0.55"/>
    <circle cx="41" cy="38" r="2.3" fill="#FF9BB3" opacity="0.55"/>
    <circle cx="32" cy="48" r="2.2" fill="#F5D2B8"/>
    <path d="M32 46 L34 42 L36 41" stroke="#F5D2B8" stroke-width="3" stroke-linecap="round" fill="none"/>
  </g>
</svg>
